<?xml version="1.0" standalone="no"?>
<!DOCTYPE svg PUBLIC "-//W3C//DTD SVG 20010904//EN"
 "http://www.w3.org/TR/2001/REC-SVG-20010904/DTD/svg10.dtd">
<svg version="1.0" xmlns="http://www.w3.org/2000/svg"
 width="89.000000pt" height="90.000000pt" viewBox="0 0 89.000000 90.000000"
 preserveAspectRatio="xMidYMid meet">

<g transform="translate(0.000000,90.000000) scale(0.100000,-0.100000)"
fill="#000000" stroke="none">
<path d="M91 889 c-39 -8 -68 -40 -76 -84 -3 -16 -5 -189 -3 -382 l3 -353 28
-27 27 -28 376 0 376 0 29 33 29 32 0 368 c0 346 -1 369 -20 399 -13 22 -31
35 -59 43 -44 12 -652 11 -710 -1z m227 -196 c6 -10 24 -61 41 -113 18 -52 36
-103 41 -112 6 -10 10 -27 10 -37 0 -11 4 -22 9 -25 4 -3 11 -20 15 -37 3 -18
8 -30 11 -28 4 5 71 189 101 279 30 91 30 90 107 90 51 0 68 -3 65 -12 -3 -7
-47 -129 -99 -271 l-94 -257 -79 2 -79 3 -59 165 c-33 91 -72 199 -88 240 -16
41 -32 87 -36 103 l-6 27 66 0 c52 0 67 -4 74 -17z"/>
</g>
</svg>
