<?xml version="1.0" standalone="no"?>
<!DOCTYPE svg PUBLIC "-//W3C//DTD SVG 20010904//EN"
 "http://www.w3.org/TR/2001/REC-SVG-20010904/DTD/svg10.dtd">
<svg version="1.0" xmlns="http://www.w3.org/2000/svg"
 width="381.000000pt" height="92.000000pt" viewBox="0 0 381.000000 92.000000"
 preserveAspectRatio="xMidYMid meet">

<g transform="translate(0.000000,92.000000) scale(0.100000,-0.100000)"
fill="#000000" stroke="none">
<path d="M81 899 c-39 -8 -68 -40 -76 -84 -3 -16 -5 -189 -3 -382 l3 -353 28
-27 27 -28 376 0 376 0 29 33 29 32 0 368 c0 346 -1 369 -20 399 -13 22 -31
35 -59 43 -44 12 -652 11 -710 -1z m227 -196 c6 -10 24 -61 41 -113 18 -52 36
-103 41 -112 6 -10 10 -27 10 -37 0 -11 4 -22 9 -25 4 -3 11 -20 15 -37 3 -18
8 -30 11 -28 4 5 71 189 101 279 30 91 30 90 107 90 51 0 68 -3 65 -12 -3 -7
-47 -129 -99 -271 l-94 -257 -79 2 -79 3 -59 165 c-33 91 -72 199 -88 240 -16
41 -32 87 -36 103 l-6 27 66 0 c52 0 67 -4 74 -17z"/>
<path d="M1454 676 c-11 -29 1 -51 30 -54 36 -4 50 10 42 42 -5 21 -12 26 -37
26 -17 0 -32 -6 -35 -14z"/>
<path d="M2060 655 c0 -35 1 -36 33 -33 28 3 32 6 32 33 0 27 -4 30 -32 33
-32 3 -33 2 -33 -33z"/>
<path d="M2900 450 l0 -220 30 0 29 0 3 83 3 82 86 5 c56 3 94 11 111 22 37
24 61 82 53 126 -16 90 -72 121 -217 122 l-98 0 0 -220z m216 139 c26 -21 36
-57 22 -82 -20 -37 -41 -46 -110 -47 l-68 0 0 68 c0 38 3 72 8 76 11 12 130 0
148 -15z"/>
<path d="M1083 538 c22 -68 43 -132 48 -143 4 -11 18 -53 30 -93 l23 -72 46 0
46 0 71 216 70 215 -35 -3 c-28 -2 -37 -8 -43 -28 -4 -14 -23 -77 -43 -140
-20 -63 -41 -132 -48 -152 -11 -37 -28 -52 -28 -25 0 7 -17 67 -38 132 -21 66
-45 141 -53 168 -13 45 -15 47 -50 47 l-36 0 40 -122z"/>
<path d="M1643 623 c-7 -2 -13 -20 -13 -39 0 -31 -3 -34 -30 -34 -27 0 -30 -3
-30 -30 0 -27 3 -30 30 -30 l30 0 0 -102 c0 -93 2 -106 23 -132 20 -25 30 -29
70 -29 58 1 66 6 60 38 -4 20 -9 24 -29 19 -44 -11 -54 9 -54 112 l0 94 40 0
c38 0 40 2 40 30 0 28 -2 30 -40 30 l-40 0 0 40 c0 35 -3 40 -22 39 -13 0 -29
-3 -35 -6z"/>
<path d="M1460 390 l0 -160 30 0 30 0 0 160 0 160 -30 0 -30 0 0 -160z"/>
<path d="M1840 390 l0 -160 30 0 30 0 0 99 c0 118 15 148 78 153 34 3 37 6 40
36 3 30 2 32 -30 32 -19 0 -43 -7 -54 -15 -25 -19 -34 -19 -34 0 0 10 -10 15
-30 15 l-30 0 0 -160z"/>
<path d="M2060 390 l0 -160 35 0 35 0 0 160 0 160 -35 0 -35 0 0 -160z"/>
<path d="M2198 543 c-2 -5 -2 -77 0 -160 l3 -153 35 0 34 0 0 111 c0 119 5
132 54 145 74 18 96 -19 96 -162 l0 -94 35 0 35 0 0 108 c0 124 -20 185 -65
202 -39 15 -108 12 -131 -5 -25 -19 -34 -19 -34 0 0 16 -56 22 -62 8z"/>
<path d="M2622 533 c-55 -27 -77 -68 -77 -145 0 -52 5 -73 21 -94 52 -71 128
-91 208 -56 52 23 66 46 43 69 -14 14 -18 14 -45 -6 -56 -40 -137 -16 -156 47
-7 22 -7 22 108 22 l116 0 0 44 c0 49 -31 103 -70 123 -35 18 -109 16 -148 -4z
m112 -44 c14 -7 29 -25 35 -40 l10 -29 -85 0 c-53 0 -84 4 -84 11 0 18 58 69
79 69 11 0 31 -5 45 -11z"/>
<path d="M3270 390 l0 -160 30 0 30 0 0 99 c0 84 3 102 21 125 15 19 30 26 55
26 32 0 34 2 34 35 0 32 -3 35 -29 35 -15 0 -40 -9 -55 -21 l-26 -20 0 20 c0
17 -6 21 -30 21 l-30 0 0 -160z"/>
<path d="M3560 543 c-50 -18 -100 -98 -100 -157 1 -43 32 -108 64 -134 64 -50
176 -35 229 30 67 83 35 223 -60 259 -26 10 -108 11 -133 2z m129 -79 c27 -22
31 -33 31 -73 0 -54 -17 -83 -59 -101 -36 -15 -68 -8 -101 20 -20 17 -24 31
-24 76 -1 49 2 59 27 80 38 32 86 32 126 -2z"/>
</g>
</svg>
